<svg
   width="24"
  height="24"
  viewBox="0 0 24 24"
  fill="none"
  stroke="currentColor"
  stroke-width="2"
  stroke-linecap="round"
  stroke-linejoin="round"  
  xmlns="http://www.w3.org/2000/svg">

 <g fill="currentColor" transform="matrix(0.87897516,0,0,1.0094811,-0.12632862,1.5962267)">
    <path
       d="M 4.23367,16.358202 V 5.6451474 Q 3.9450457,6.0016833 3.5036203,6.3412412 3.0621949,6.6807992 2.5189021,6.9694235 1.9756093,7.2580478 1.3304491,7.4957384 L 1.1436922,7.0203572 Q 2.1114325,6.6638213 2.9263717,6.0865728 3.7582888,5.5093242 4.4034489,4.5925176 H 4.8109185 V 16.358202 Z"/>
    <path
       d="m 10.26081,16.358202 q -0.01698,-0.152801 -0.01698,-0.237691 0,-0.08489 0,-0.169779 0,-1.035651 0.424447,-1.850591 0.441425,-0.814939 1.137519,-1.511033 0.696094,-0.713072 1.443122,-1.37521 0.916806,-0.814939 1.426143,-1.4261431 0.509337,-0.6112044 0.713072,-1.1544972 0.220713,-0.5432928 0.220713,-1.1375193 0,-1.2733425 -0.662138,-1.9185026 -0.64516,-0.6621381 -1.918503,-0.6621381 -0.492359,0 -0.984718,0.1528011 Q 11.568109,5.203722 11.143661,5.4583905 10.719214,5.713059 10.3457,6.0865728 L 10.006142,5.6621253 q 0.339558,-0.3904917 0.831917,-0.679116 0.509337,-0.2886243 1.069608,-0.4414254 0.56027,-0.169779 1.069607,-0.169779 1.544989,0 2.393884,0.8149392 0.848895,0.7979613 0.848895,2.2580606 0,0.6960939 -0.254668,1.3412541 -0.237691,0.6281823 -0.81494,1.3072982 -0.56027,0.679116 -1.52801,1.561967 -0.662139,0.594226 -1.307299,1.256364 -0.628182,0.645161 -1.05263,1.358232 -0.424447,0.713072 -0.424447,1.544989 h 5.82342 v 0.543293 z"/>
    <path
       d="m 22.298127,16.61287 q -0.475381,0 -0.96774,-0.08489 -0.475381,-0.06791 -0.933784,-0.203735 -0.441426,-0.135823 -0.848895,-0.339558 l 0.169779,-0.56027 q 0.543292,0.305602 1.20543,0.475381 0.679116,0.169779 1.392188,0.169779 0.848895,0 1.612901,-0.288625 0.780983,-0.288624 1.273342,-0.916806 0.492359,-0.628182 0.492359,-1.629879 0,-0.96774 -0.407469,-1.595922 -0.40747,-0.64516 -1.222409,-0.96774 Q 23.24889,10.331048 22.026481,10.31407 H 21.890658 V 9.8047328 h 0.186757 q 0.96774,0 1.629878,-0.2886243 0.679116,-0.2886243 1.035652,-0.8319171 0.356536,-0.5602707 0.356536,-1.3412541 0,-0.7809834 -0.305602,-1.3242761 Q 24.488276,5.4753684 23.911028,5.203722 23.333779,4.9150977 22.484884,4.9150977 q -0.594226,0 -1.205431,0.2037348 -0.594226,0.1867569 -1.137519,0.5772486 L 19.870288,5.2206999 q 0.543292,-0.4074696 1.222408,-0.6281823 0.679116,-0.2207127 1.443122,-0.2207127 1.018674,0 1.714768,0.339558 0.713072,0.339558 1.086585,0.9847182 0.373514,0.6281822 0.373514,1.5619667 0,1.0696077 -0.560271,1.7996574 -0.543292,0.7130718 -1.595922,0.9507628 0.950762,0.203734 1.561967,0.628182 0.611204,0.424447 0.899828,1.05263 0.288625,0.628182 0.288625,1.477077 0,1.035652 -0.458404,1.816635 -0.441425,0.780983 -1.324276,1.205431 -0.882851,0.424447 -2.224105,0.424447 z"/>
  </g>
</svg>
