<?xml version="1.0" encoding="UTF-8" standalone="no"?>
<!-- Created with Inkscape (http://www.inkscape.org/) -->

<svg
   width="100mm"
   height="100mm"
   viewBox="0 0 100 100"
   version="1.1"
   id="svg5"
   inkscape:version="1.2.2 (b0a8486541, 2022-12-01)"
   sodipodi:docname="logo.svg"
   xmlns:inkscape="http://www.inkscape.org/namespaces/inkscape"
   xmlns:sodipodi="http://sodipodi.sourceforge.net/DTD/sodipodi-0.dtd"
   xmlns="http://www.w3.org/2000/svg"
   xmlns:svg="http://www.w3.org/2000/svg">
  <sodipodi:namedview
     id="namedview7"
     pagecolor="#ffffff"
     bordercolor="#000000"
     borderopacity="0.25"
     inkscape:showpageshadow="2"
     inkscape:pageopacity="0.0"
     inkscape:pagecheckerboard="0"
     inkscape:deskcolor="#d1d1d1"
     inkscape:document-units="mm"
     showgrid="false"
     inkscape:zoom="1.4752525"
     inkscape:cx="268.42862"
     inkscape:cy="174.88532"
     inkscape:window-width="1920"
     inkscape:window-height="1012"
     inkscape:window-x="0"
     inkscape:window-y="0"
     inkscape:window-maximized="1"
     inkscape:current-layer="layer1" />
  <defs
     id="defs2">
    <linearGradient
       id="linearGradient3217"
       inkscape:swatch="solid">
      <stop
         style="stop-color:#000000;stop-opacity:1;"
         offset="0"
         id="stop3215" />
    </linearGradient>
    <filter
       inkscape:collect="always"
       style="color-interpolation-filters:sRGB"
       id="filter3227"
       x="-0.064419778"
       y="-0.064419778"
       width="1.1288396"
       height="1.1288396">
      <feGaussianBlur
         inkscape:collect="always"
         stdDeviation="0.064000228"
         id="feGaussianBlur3229" />
    </filter>
  </defs>
  <g
     inkscape:label="图层 1"
     inkscape:groupmode="layer"
     id="layer1">
    <path
       id="path365"
       style="display:none;fill:none;fill-opacity:1;stroke:#53b677;stroke-width:10;stroke-linecap:round;stroke-linejoin:round;stroke-dasharray:none;stroke-dashoffset:0;stroke-opacity:1;paint-order:normal;filter:url(#filter3227)"
       d="M 50.000049,9.9999064 A 40,40 0 0 0 9.9999064,50.000049 40,40 0 0 0 50.000049,90.000191 H 69.999862 A 20,20 0 0 0 90.000191,69.999862 20,20 0 0 0 69.999862,50.000049 20,20 0 0 0 90.000191,30.000236 20,20 0 0 0 69.999862,9.9999064 Z" />
    <g
       id="g1617"
       transform="translate(-30)">
      <ellipse
         style="display:none;fill:#53b677;fill-opacity:1;stroke-width:13.5909;stroke-linecap:round;stroke-linejoin:round"
         id="path956"
         cx="0"
         cy="50"
         inkscape:label="bkg_bak"
         rx="60"
         ry="40"
         transform="translate(50)" />
    </g>
    <path
       id="path956-5"
       style="display:inline;fill:#2fdc6d;fill-opacity:1;stroke-width:13.5909;stroke-linecap:round;stroke-linejoin:round"
       inkscape:label="bkg"
       d="M 25,9.9999064 A 20,20 0 0 1 45.000329,30.000236 20,20 0 0 1 25,50.000049 20,20 0 0 1 45.000329,69.999862 20,20 0 0 1 25,90.000191 60,40 0 0 0 84.999956,50.000049 60,40 0 0 0 25,9.9999064 Z" />
    <path
       id="path347"
       style="fill:#2fdc6d;fill-opacity:1;stroke-width:2.3866;paint-order:markers stroke fill"
       inkscape:transform-center-x="-3.3097663"
       inkscape:transform-center-y="0.035413327"
       d="m 15,30 2.500106,9.946773 2.500106,9.946774 L 17.508891,59.946775 15.07028,69.789159 15.070797,70 25.035563,59.946775 35.000329,49.893547 25.000423,39.946773 Z" />
    <circle
       style="fill:#000000;fill-opacity:1;stroke-width:0.798571;paint-order:markers stroke fill"
       id="path955"
       cx="77"
       cy="50"
       r="2" />
  </g>
</svg>
